<svg xmlns="http://www.w3.org/2000/svg" xmlns:xlink="http://www.w3.org/1999/xlink" viewBox="0 0 49 49"><defs><style>.cls-1{filter:url(#Path_972);}.cls-2{fill:#fff;}.cls-3{fill:#e1e1e1;}.cls-4{fill:#e40303;}</style><filter id="Path_972" width="67" height="67" name="Path_972"><feOffset dx="3" dy="3"/><feGaussianBlur result="blur" stdDeviation="3"/><feFlood flood-opacity="0.16"/><feComposite operator="in" in="blur"/><feComposite in="SourceGraphic"/></filter></defs><title>Asset 1</title><g id="Layer_2" data-name="Layer 2"><g id="Layer_1-2" data-name="Layer 1"><g id="Group_11466" data-name="Group 11466"><g class="cls-1"><g id="Path_972-2" data-name="Path 972-2"><path class="cls-2" d="M24.5,48.5A24,24,0,0,1,15.16,2.39,24,24,0,0,1,33.84,46.61,23.85,23.85,0,0,1,24.5,48.5Z"/><path class="cls-3" d="M24.5,1a23.51,23.51,0,0,0-9.15,45.15A23.51,23.51,0,0,0,33.65,2.85,23.35,23.35,0,0,0,24.5,1m0-1A24.5,24.5,0,1,1,0,24.5,24.5,24.5,0,0,1,24.5,0Z"/></g></g><g id="left-arrow"><g id="Group_698" data-name="Group 698"><path id="Path_275" data-name="Path 275" class="cls-4" d="M23.52,32V19.34l-3.41,3.43a1,1,0,0,1-1.38-1.38l5.08-5.1h0a1,1,0,0,1,1.38,0h0l5.08,5.1a1,1,0,0,1-1.38,1.38l-3.41-3.43V32a1,1,0,0,1-2,0Z"/></g></g></g></g></g></svg>