<svg id="Layer_1" data-name="Layer 1" xmlns="http://www.w3.org/2000/svg" viewBox="0 0 49.98 49.91"><defs><style>.cls-1{fill:#fff;}.cls-2{fill:#e40303;}</style></defs><title>benefits-icon-1</title><g id="Group_991" data-name="Group 991"><path id="Path_925" data-name="Path 925" class="cls-1" d="M25,3.74a1,1,0,0,1-1-1h0V1A1,1,0,1,1,26,1V2.78a1,1,0,0,1-1,1Z" transform="translate(0 0)"/><path id="Path_926" data-name="Path 926" class="cls-1" d="M25,49.91a1,1,0,0,1-1-1h0V47.14a1,1,0,1,1,1.93,0V49a1,1,0,0,1-1,1Z" transform="translate(0 0)"/><path id="Path_927" data-name="Path 927" class="cls-1" d="M2.78,25.92H1A1,1,0,1,1,1,24H2.78a1,1,0,1,1,0,1.93Z" transform="translate(0 0)"/><path id="Path_928" data-name="Path 928" class="cls-2" d="M49,25.92H47.2a1,1,0,1,1,0-1.93H49a1,1,0,1,1,0,1.93Z" transform="translate(0 0)"/><path id="Path_929" data-name="Path 929" class="cls-1" d="M4.2,37.94a1,1,0,0,1-.48-1.8l1.59-.91a1,1,0,0,1,1,1.67l-1.59.91A1,1,0,0,1,4.2,37.94Z" transform="translate(0 0)"/><path id="Path_930" data-name="Path 930" class="cls-2" d="M44.24,14.8A1,1,0,0,1,43.75,13l1.53-.91a1,1,0,1,1,1,1.64l0,0-1.53.91A1,1,0,0,1,44.24,14.8Z" transform="translate(0 0)"/><path id="Path_931" data-name="Path 931" class="cls-2" d="M37,46.74a1,1,0,0,1-.84-.49l-.91-1.59a1,1,0,0,1,1.68-1l.91,1.59A1,1,0,0,1,37,46.74Z" transform="translate(0 0)"/><path id="Path_932" data-name="Path 932" class="cls-1" d="M13.9,6.69a1,1,0,0,1-.84-.49l-.91-1.59a1,1,0,0,1,1.68-1l.91,1.59a1,1,0,0,1-.84,1.44Z" transform="translate(0 0)"/><path id="Path_933" data-name="Path 933" class="cls-2" d="M45.77,37.95a1,1,0,0,1-.49-.14l-1.53-.91a1,1,0,1,1,.94-1.68l0,0,1.53.91a1,1,0,0,1-.49,1.79Z" transform="translate(0 0)"/><path id="Path_934" data-name="Path 934" class="cls-1" d="M5.78,14.8a1,1,0,0,1-.48-.13l-1.59-.91a1,1,0,0,1,1-1.67L6.26,13a1,1,0,0,1-.48,1.8Z" transform="translate(0 0)"/><path id="Path_935" data-name="Path 935" class="cls-2" d="M36.07,6.69a1,1,0,0,1-.84-1.44l.91-1.59a1,1,0,0,1,1.68,1L36.91,6.2A1,1,0,0,1,36.07,6.69Z" transform="translate(0 0)"/><path id="Path_936" data-name="Path 936" class="cls-1" d="M13,46.74a1,1,0,0,1-.84-1.44l.91-1.59a1,1,0,0,1,1.68,1l-.91,1.59A1,1,0,0,1,13,46.74Z" transform="translate(0 0)"/><path id="Path_937" data-name="Path 937" class="cls-1" d="M18.09,31.42a1,1,0,0,1-.6-1.72L24,24.49v-12a1,1,0,1,1,1.93,0V25a1,1,0,0,1-.36.75l-6.92,5.5A1,1,0,0,1,18.09,31.42Z" transform="translate(0 0)"/></g></svg>