<svg id="Layer_1" data-name="Layer 1" xmlns="http://www.w3.org/2000/svg" viewBox="0 0 106 106"><defs><style>.cls-1{fill:#fff;}.cls-2{fill:none;stroke:#00b0f0;stroke-width:2px;}.cls-3{fill:#00b0f0;}</style></defs><title>benefits-icon-10</title><g id="Group_11466" data-name="Group 11466"><g id="Ellipse_126" data-name="Ellipse 126"><circle class="cls-1" cx="53" cy="53" r="53"/><circle class="cls-2" cx="53" cy="53" r="52"/></g><g id="Group_1708" data-name="Group 1708"><path id="Path_3884" data-name="Path 3884" class="cls-3" d="M53.05,30l4.78,1.92,11.38,4.51A1.52,1.52,0,0,1,70.37,38c0,7.14,0,14.28,0,21.42a10.57,10.57,0,0,1-2.11,5.94,26.44,26.44,0,0,1-6.35,6.27,49,49,0,0,1-8.81,5.17s0,0,0,0h-.73c-1.9-1-3.83-2-5.68-3.1a33.1,33.1,0,0,1-8.37-6.89,12.86,12.86,0,0,1-3.1-6,11.23,11.23,0,0,1-.16-2q0-10.32,0-20.64a1.62,1.62,0,0,1,1.29-1.89l15.89-6.29.15-.09ZM51.22,73.05v-.61q0-4.17,0-8.33a1.47,1.47,0,1,1,2.93,0c0,2.81,0,5.61,0,8.42v.52A45.88,45.88,0,0,0,61.81,68a20.1,20.1,0,0,0,4.1-4.4A8.25,8.25,0,0,0,67.44,59q0-9.82,0-19.64a.57.57,0,0,0-.42-.63q-5.32-2.09-10.62-4.2l-2.25-.88v9.16a1.47,1.47,0,1,1-2.93,0c0-2.87,0-5.74,0-8.61v-.53l-.3.09-12.66,5c-.3.12-.33.29-.33.55q0,9.82,0,19.64a7.6,7.6,0,0,0,.15,1.54A11,11,0,0,0,41,65.58a35.51,35.51,0,0,0,8.42,6.48C50,72.39,50.58,72.7,51.22,73.05Z"/><path id="Path_3885" data-name="Path 3885" class="cls-3" d="M49.26,56.65H46.78c-1,0-1.41-.39-1.42-1.41V51.17c0-1,.42-1.38,1.4-1.39h2.49v-.84c0-.6,0-1.19,0-1.79a1.13,1.13,0,0,1,1.28-1.26q2.15,0,4.3,0a1.13,1.13,0,0,1,1.28,1.27c0,.85,0,1.7,0,2.61h2.42c1.09,0,1.48.39,1.48,1.49,0,1.34,0,2.68,0,4,0,.93-.41,1.34-1.34,1.35H56.13V58c0,.44,0,.88,0,1.33,0,.81-.41,1.23-1.21,1.24q-2.22,0-4.44,0c-.81,0-1.2-.45-1.21-1.29S49.26,57.55,49.26,56.65Zm2.27-8.52c0,.05-.05.08-.05.1q0,1.14,0,2.29C51.45,51.6,51.08,52,50,52H47.6v2.47h2.6a1.12,1.12,0,0,1,1.15.67,2.17,2.17,0,0,1,.11.76c0,.8,0,1.61,0,2.44h2.4c0-.05.06-.08.06-.11,0-.78,0-1.56,0-2.33,0-1,.4-1.43,1.45-1.43h2.41V52H55.15A1.09,1.09,0,0,1,54,51.23a2.94,2.94,0,0,1-.07-.73c0-.79,0-1.58,0-2.39Z"/></g></g></svg>