<svg id="Layer_1" data-name="Layer 1" xmlns="http://www.w3.org/2000/svg" viewBox="0 0 51.05 38.4"><defs><style>.cls-1,.cls-2{fill:none;stroke-miterlimit:10;stroke-width:1.5px;}.cls-1{stroke:#fff;}.cls-2{stroke:#e40303;}</style></defs><title>benefits-icon-7</title><g id="Group_994" data-name="Group 994"><path id="Path_958" data-name="Path 958" class="cls-1" d="M8.93,34.82H29c3.09,0,4.15-.64,6-2.49L49.46,16.69a2.92,2.92,0,0,0,0-4.09h0a3,3,0,0,0-4.13,0L32.72,24.06" transform="translate(0 0)"/><path id="Path_959" data-name="Path 959" class="cls-1" d="M23.16,26.88h6.7a2.82,2.82,0,1,0,0-5.64h-6.7a9.69,9.69,0,0,0-11.72,1.55H8.93" transform="translate(0 0)"/><rect id="Rectangle_3031" data-name="Rectangle 3031" class="cls-1" x="0.75" y="19.95" width="8.19" height="17.7"/><path id="Path_960" data-name="Path 960" class="cls-2" d="M26.52,2.73a2,2,0,1,1-.58-1.4A2,2,0,0,1,26.52,2.73Z" transform="translate(0 0)"/><path id="Path_961" data-name="Path 961" class="cls-2" d="M34.7,10.91a2,2,0,1,1-2-2h0a2,2,0,0,1,2,2Z" transform="translate(0 0)"/><line id="Line_20" data-name="Line 20" class="cls-2" x1="22.54" y1="12.89" x2="34.7" y2="0.75"/></g></svg>