<svg id="Layer_1" data-name="Layer 1" xmlns="http://www.w3.org/2000/svg" viewBox="0 0 106 106"><defs><style>.cls-1{fill:#fff;}.cls-2{fill:none;stroke:#00b0f0;stroke-width:2px;}.cls-3{fill:#00b0f0;}</style></defs><title>benefits-icon-9</title><g id="Group_11465" data-name="Group 11465"><g id="Ellipse_125" data-name="Ellipse 125"><circle class="cls-1" cx="53" cy="53" r="53"/><circle class="cls-2" cx="53" cy="53" r="52"/></g><g id="Group_1707" data-name="Group 1707"><path id="Path_3882" data-name="Path 3882" class="cls-3" d="M52.06,25c.43.12.88.21,1.3.36a7.12,7.12,0,0,1,4.79,7.44,7.29,7.29,0,0,1-6.22,6.09,7.12,7.12,0,0,1-6.82-3.77,6.59,6.59,0,0,1,.82-7.51,7.06,7.06,0,0,1,4.31-2.52l.19-.09Zm3.82,7a4.45,4.45,0,0,0-4.22-4.67h-.36a4.46,4.46,0,0,0-4.68,4.22q0,.2,0,.4a4.46,4.46,0,0,0,4.24,4.67h.4a4.45,4.45,0,0,0,4.62-4.27Q55.88,32.16,55.87,32Z"/><path id="Path_3883" data-name="Path 3883" class="cls-3" d="M46.51,52.53A6.25,6.25,0,0,0,44.46,56a8.93,8.93,0,0,0-.17,1.45,4.64,4.64,0,0,1-4.65,4.63H39.3a4.85,4.85,0,0,1-4.3-5c.35-6.15,3.17-10.89,8.64-13.7,5.07-2.61,10.15-2.11,14.93,1A12.91,12.91,0,0,1,60,45.48a17.39,17.39,0,0,0,6.9,3.42,4.91,4.91,0,0,1,3.32,5.76,4.65,4.65,0,0,1-5.73,3.21l-.2-.06A26,26,0,0,1,55.92,54c0,1.19,0,2.28,0,3.37,0,.2.25.43.43.59A36.83,36.83,0,0,1,67.21,74.44,4.48,4.48,0,0,1,66,79.39a4.39,4.39,0,0,1-4.89,1,4.7,4.7,0,0,1-2.79-3.07,27.67,27.67,0,0,0-4.24-8.21l-.3-.38-.14-.1c-.08.19-.15.36-.22.53A37.33,37.33,0,0,1,48,78.85,4.64,4.64,0,1,1,40.79,73a22.34,22.34,0,0,0,4.59-8.42,32.07,32.07,0,0,0,1.12-7.28C46.57,55.72,46.51,54.16,46.51,52.53Zm7.06,1.93V51.69a1.09,1.09,0,0,1,.63-1.06,1.27,1.27,0,0,1,1.49.3,24.2,24.2,0,0,0,9.5,4.72,2.32,2.32,0,0,0,1.42-4.4l-.08,0c-.65-.22-1.3-.45-2-.65a15.15,15.15,0,0,1-4.49-2.14c-.82-.59-1.63-1.21-2.44-1.82a11.89,11.89,0,0,0-14.33-.42,13,13,0,0,0-6,11.19,2.26,2.26,0,0,0,2,2.4A2.42,2.42,0,0,0,42,57.55h0a9.15,9.15,0,0,1,5.15-8.17,1.16,1.16,0,0,1,1.8,1.13c0,1.58,0,3.15,0,4.73a39.93,39.93,0,0,1-1.13,9.42,23.64,23.64,0,0,1-4,8.22c-.46.63-1,1.22-1.44,1.84a2,2,0,0,0,0,2.69,2.26,2.26,0,0,0,3.81-.06A33.93,33.93,0,0,0,52.07,66a1.24,1.24,0,0,1,1-1,1.31,1.31,0,0,1,1.28.55,32,32,0,0,1,6.4,11.25,2.58,2.58,0,0,0,1,1.22,2.19,2.19,0,0,0,2.59-.13,2.21,2.21,0,0,0,.78-2.61A34,34,0,0,0,54.93,59.76a3.71,3.71,0,0,1-1.36-3c0-.78,0-1.56,0-2.34Z"/></g></g></svg>