<svg id="Layer_1" data-name="Layer 1" xmlns="http://www.w3.org/2000/svg" viewBox="0 0 49.41 49.63"><defs><style>.cls-1,.cls-2{fill:none;stroke-miterlimit:10;stroke-width:1.5px;}.cls-1{stroke:#fff;}.cls-2{stroke:#e40303;}</style></defs><title>benefits-icon-3</title><g id="medical_check" data-name="medical check"><path id="Path_953" data-name="Path 953" class="cls-1" d="M6.93,24.24a50.2,50.2,0,0,0,10.82,7.89s17-8.77,17-19.88c0-5.35-4.1-9.73-9.15-9.73"/><path id="Path_954" data-name="Path 954" class="cls-1" d="M9.9,2.51C4.85,2.51.75,6.9.75,12.25a14.29,14.29,0,0,0,2.82,8"/><ellipse id="Ellipse_36" data-name="Ellipse 36" class="cls-1" cx="12.02" cy="3.75" rx="2.5" ry="3"/><ellipse id="Ellipse_37" data-name="Ellipse 37" class="cls-1" cx="23.52" cy="3.75" rx="2" ry="3"/><path id="Path_955" data-name="Path 955" class="cls-1" d="M41.71,35.74V36.9a12,12,0,0,1-12,12h0a12,12,0,0,1-12-12V32.65"/><path id="Path_956" data-name="Path 956" class="cls-1" d="M38.62,38.1a7,7,0,1,1,6.18,0"/><circle id="Ellipse_38" data-name="Ellipse 38" class="cls-1" cx="41.52" cy="31.75" r="3"/><path id="Path_957" data-name="Path 957" class="cls-2" d="M.75,20.29h7L10,16.42l3.86,7.73L18.52,11l3.86,9.27h3.86"/></g></svg>