<svg id="Layer_1" data-name="Layer 1" xmlns="http://www.w3.org/2000/svg" viewBox="0 0 37.56 43.04"><defs><style>.cls-1{fill:#fff;}.cls-2{fill:#e40303;}</style></defs><title>benefits-icon-6</title><g id="Group_993" data-name="Group 993"><path id="Path_945" data-name="Path 945" class="cls-1" d="M18.78,22.35a.84.84,0,0,1-.3-.05c-7.14-2.73-11.93-10-11.93-18.14A.83.83,0,0,1,8.21,4.1s0,0,0,.06c0,7.32,4.23,13.9,10.56,16.47C25.08,18,29.29,11.47,29.29,4.16A.83.83,0,1,1,31,4.1s0,0,0,.06c0,8.11-4.77,15.4-11.88,18.14A.83.83,0,0,1,18.78,22.35Z" transform="translate(0 0)"/><path id="Path_946" data-name="Path 946" class="cls-1" d="M30.13,39.72a.83.83,0,0,1-.83-.83h0c0-7.32-4.21-13.89-10.52-16.47C12.45,25,8.21,31.56,8.21,38.88a.83.83,0,0,1-1.66.06s0,0,0-.06c0-8.12,4.79-15.41,11.93-18.14a.83.83,0,0,1,.59,0C26.19,23.48,31,30.77,31,38.88a.83.83,0,0,1-.83.83Z" transform="translate(0 0)"/><path id="Path_947" data-name="Path 947" class="cls-2" d="M18.78,18.44a.82.82,0,0,1-.29-.05,10.43,10.43,0,0,1-5.64-5.21.83.83,0,0,1,.75-1.2H23.91a.83.83,0,0,1,.75,1.2,10.46,10.46,0,0,1-5.59,5.21A.81.81,0,0,1,18.78,18.44ZM15,13.65a3.78,3.78,0,0,0,7.42,0Z" transform="translate(0 0)"/><path id="Path_948" data-name="Path 948" class="cls-2" d="M25.48,36.93H12a.83.83,0,0,1-.75-1.19A13.32,13.32,0,0,1,18.48,29a.85.85,0,0,1,.6,0,13.38,13.38,0,0,1,7.15,6.72.83.83,0,0,1-.75,1.19Zm-12-1.66H24.07a5.38,5.38,0,0,0-10.64,0Z" transform="translate(0 0)"/><path id="Path_949" data-name="Path 949" class="cls-1" d="M34.72,5H2.84A2.65,2.65,0,0,1,0,2.53V.83A.83.83,0,0,1,.83,0h35.9a.83.83,0,0,1,.83.83h0V2.49A2.68,2.68,0,0,1,34.72,5ZM1.66,1.66v.83c0,.46.53.83,1.18.83H34.73c.63,0,1.18-.39,1.18-.83V1.66Z" transform="translate(0 0)"/><path id="Path_950" data-name="Path 950" class="cls-1" d="M36.73,43H.83A.83.83,0,0,1,0,42.21H0V40.55A2.65,2.65,0,0,1,2.8,38H34.72a2.68,2.68,0,0,1,2.84,2.49v1.66a.83.83,0,0,1-.83.83ZM1.66,41.38H35.9v-.83c0-.44-.55-.83-1.18-.83H2.83c-.65,0-1.18.37-1.18.83Z" transform="translate(0 0)"/><path id="Path_951" data-name="Path 951" class="cls-1" d="M2.84,39.71A.83.83,0,0,1,2,38.89H2V4.16A.83.83,0,0,1,3.67,4.1s0,0,0,.06V38.88a.83.83,0,0,1-.83.83Z" transform="translate(0 0)"/><path id="Path_952" data-name="Path 952" class="cls-1" d="M34.72,39.71a.83.83,0,0,1-.83-.83h0V4.16a.83.83,0,1,1,1.66,0V38.88a.83.83,0,0,1-.83.83Z" transform="translate(0 0)"/></g></svg>