<svg id="Layer_1" data-name="Layer 1" xmlns="http://www.w3.org/2000/svg" viewBox="0 0 51.5 48.11"><defs><style>.cls-1{fill:#fff;}.cls-2{fill:#e40303;}</style></defs><title>benefits-icon-4</title><g id="Group_992" data-name="Group 992"><path id="Path_938" data-name="Path 938" class="cls-1" d="M46.57,30.08a1,1,0,0,1-.79-.39l-3.11-4a1,1,0,1,1,1.47-1.36l.11.15,3.11,4a1,1,0,0,1-.79,1.6Z" transform="translate(-0.06 -0.02)"/><path id="Path_939" data-name="Path 939" class="cls-1" d="M46.57,30.08A1,1,0,0,1,46,28.3l4-3.11a1,1,0,0,1,1.22,1.58l-4,3.11A1,1,0,0,1,46.57,30.08Z" transform="translate(-0.06 -0.02)"/><path id="Path_940" data-name="Path 940" class="cls-1" d="M24,48.09A24,24,0,1,1,47.55,29.3a1,1,0,0,1-1.95-.44A22.06,22.06,0,1,0,25,46.08a.93.93,0,0,1,1,.82A.92.92,0,0,1,26,47a1,1,0,0,1-1,1Z" transform="translate(-0.06 -0.02)"/><path id="Path_941" data-name="Path 941" class="cls-1" d="M17.39,30.32a1,1,0,0,1-.62-1.78l6.3-5V12.15a1,1,0,1,1,2,0V24a1,1,0,0,1-.38.78L18,30.1A1,1,0,0,1,17.39,30.32Z" transform="translate(-0.06 -0.02)"/><path id="Path_942" data-name="Path 942" class="cls-2" d="M31,48.13a1,1,0,0,1-.6-1.79l6.21-4.63a2.67,2.67,0,0,0,1.24-2.19,2.94,2.94,0,0,0-5.86,0,1,1,0,1,1-2,.2,1,1,0,0,1,0-.2,4.93,4.93,0,0,1,9.84,0,4.65,4.65,0,0,1-2.06,3.8l-6.19,4.61A1,1,0,0,1,31,48.13Z" transform="translate(-0.06 -0.02)"/><path id="Path_943" data-name="Path 943" class="cls-2" d="M38.84,48.13H31a1,1,0,0,1,0-2h7.85a1,1,0,0,1,0,2Z" transform="translate(-0.06 -0.02)"/><path id="Path_944" data-name="Path 944" class="cls-2" d="M49.09,48.13a1,1,0,0,1-1-1V45.08H41.94a1,1,0,0,1-.75-1.65l7.15-8.26a1,1,0,0,1,1.75.65v7.27h.53a1,1,0,0,1,0,2h-.53v2.05A1,1,0,0,1,49.09,48.13Zm-5-5h4V38.5Z" transform="translate(-0.06 -0.02)"/></g></svg>