<svg id="Layer_1" data-name="Layer 1" xmlns="http://www.w3.org/2000/svg" viewBox="0 0 106 106"><defs><style>.cls-1{fill:#fff;}.cls-2{fill:none;stroke:#00b0f0;stroke-width:2px;}.cls-3{fill:#00b0f0;}</style></defs><title>benefits-icon-11</title><g id="Group_11467" data-name="Group 11467"><g id="Ellipse_127" data-name="Ellipse 127"><circle class="cls-1" cx="53" cy="53" r="53"/><circle class="cls-2" cx="53" cy="53" r="52"/></g><g id="Group_1710" data-name="Group 1710"><g id="Group_1709" data-name="Group 1709"><path id="Path_3886" data-name="Path 3886" class="cls-3" d="M54.94,62.53c2,1,2,1,1.29,3-.59,1.56-1.2,3.11-1.75,4.68-.34,1-.83,1.17-1.84.84-4.32-1.42-4.39-1.41-2.71-5.56A5.07,5.07,0,0,0,49.87,61c-1.58-3.44-3-7-4.37-10.49a1.64,1.64,0,0,0-1.76-1.22A9.29,9.29,0,0,0,35.5,53.6q-3.82,5.66-7.39,11.48c-2.1,3.43-1.84,4.93,1,7.75,1.83,1.83,3.64,3.67,5.48,5.48,1.15,1.14,2.51,1.22,3.49.27s1-2.33-.2-3.59c-1.7-1.74-3.4-3.48-5.17-5.15A1.86,1.86,0,0,1,32.49,67c1.74-2.3,3.36-4.69,5.14-7a2.34,2.34,0,0,1,1.84-.82c.39.06.85,1,.91,1.65.69,7.31,1.3,14.62,2,21.93.09,1,.07,2-1.1,2.12s-1.48-.75-1.53-1.76c0-.69-.17-1.38-.27-2.1-3.59,1.44-4.82,1.19-7.52-1.52-1.79-1.79-3.6-3.57-5.36-5.39-2.78-2.86-3.39-5.8-1.37-9.25,2.76-4.71,5.68-9.34,8.85-13.77a11,11,0,0,1,9.24-4.47c6.28,0,12.57,0,18.85,0a11.26,11.26,0,0,1,9.53,4.81c3,4.22,5.72,8.59,8.37,13,2.19,3.65,1.68,6.72-1.29,9.77C77,76,75.18,77.69,73.5,79.52,71.36,81.87,69,82.7,66,80.9a10.7,10.7,0,0,1-.35,2.51c-.23.59-.82,1.37-1.33,1.43-1,.12-1.35-.72-1.27-1.65q.58-6.81,1.19-13.61c.26-2.92.49-5.85.83-8.77.07-.61.52-1.58.91-1.64a2.35,2.35,0,0,1,1.84.82c1.81,2.31,3.46,4.74,5.22,7.09a1.74,1.74,0,0,1-.2,2.65c-1.75,1.69-3.46,3.42-5.17,5.15-1.33,1.34-1.42,2.62-.3,3.69s2.36.86,3.6-.38c2-2,4-4,6-6s2.33-3.6.88-6c-2.74-4.55-5.54-9.08-8.61-13.4a8.46,8.46,0,0,0-8-3.37,1.53,1.53,0,0,0-1.05.78C58.39,54.25,56.69,58.36,54.94,62.53Zm-7-13.11,4.78,11.49,4.78-11.49ZM38.67,71.63,38,64l-2.9,4ZM67.41,64l-.62,7.57,3.64-3.47Z"/><path id="Path_3887" data-name="Path 3887" class="cls-3" d="M63.58,33.08a10.92,10.92,0,1,1,0-.1Zm-10.9,8.07a8.21,8.21,0,1,0-8.25-8.34,8.21,8.21,0,0,0,8.25,8.34Z"/></g></g></g></svg>