<svg id="Layer_1" data-name="Layer 1" xmlns="http://www.w3.org/2000/svg" viewBox="0 0 46.87 46.82"><defs><style>.cls-1,.cls-2{fill:none;stroke-miterlimit:10;stroke-width:1.5px;}.cls-1{stroke:#fff;}.cls-2{stroke:#e40303;}</style></defs><title>benefits-icon-8</title><g id="doctor"><g id="Group_995" data-name="Group 995"><path id="Path_962" data-name="Path 962" class="cls-1" d="M.79,46.07s-.73-11,5.85-13.16l11-3.65V24.87" transform="translate(-0.02 0)"/><path id="Path_963" data-name="Path 963" class="cls-1" d="M29.3,24.87v4.39l11,3.65c6.58,2.19,5.85,13.16,5.85,13.16" transform="translate(-0.02 0)"/><path id="Path_964" data-name="Path 964" class="cls-1" d="M27.1,25.6c5.12-2.19,5.65-8.11,6.21-12.65.3-2.45.39-5.1-.79-7.35a9.13,9.13,0,0,0-5.25-4.23,12,12,0,0,0-7.63,0A9.13,9.13,0,0,0,14.38,5.6c-1.18,2.25-1.09,4.9-.79,7.35.56,4.55,1.09,10.46,6.21,12.65" transform="translate(-0.02 0)"/><path id="Path_965" data-name="Path 965" class="cls-1" d="M16.87,11c7.31,0,8.77-1.46,9.5-3.65,0,0,0,3.65,3.66,3.65" transform="translate(-0.02 0)"/><path id="Path_966" data-name="Path 966" class="cls-1" d="M17.6,29.26c0,4.39,5.85,8,5.85,8s5.85-3.65,5.85-8" transform="translate(-0.02 0)"/></g><g id="Group_998" data-name="Group 998"><g id="Group_996" data-name="Group 996"><path id="Path_967" data-name="Path 967" class="cls-2" d="M15.41,30a6.18,6.18,0,0,0-2.19,5.85" transform="translate(-0.02 0)"/><path id="Path_968" data-name="Path 968" class="cls-2" d="M16.14,46.07h2.19V43.14c0-3.22-2.19-7.31-5.12-7.31h0c-2.92,0-5.12,4.09-5.12,7.31v2.92h2.19" transform="translate(-0.02 0)"/></g><g id="Group_997" data-name="Group 997"><path id="Path_969" data-name="Path 969" class="cls-2" d="M31.49,30c2.19.73,2.19,7.31,2.19,7.31v1.46" transform="translate(-0.02 0)"/><circle id="Ellipse_39" data-name="Ellipse 39" class="cls-2" cx="33.67" cy="42.41" r="3.65"/></g></g></g></svg>