<svg id="Layer_1" data-name="Layer 1" xmlns="http://www.w3.org/2000/svg" viewBox="0 0 46.1 46.1"><defs><style>.cls-1,.cls-2{fill:none;stroke-miterlimit:10;stroke-width:1.5px;}.cls-1{stroke:#fff;}.cls-2{stroke:#e40303;}</style></defs><title>benefits-icon-2</title><g id="online_medical_consultation-diagnosis" data-name="online medical consultation-diagnosis"><g id="_Grupo_" data-name=" Grupo "><g id="Group_681" data-name="Group 681"><path id="Path_254" data-name="Path 254" class="cls-1" d="M2.19,37.44V16.58a4.32,4.32,0,0,1,4.32-4.32h5.76" transform="translate(0 0)"/><path id="Path_255" data-name="Path 255" class="cls-1" d="M43.91,37.44V16.58a4.32,4.32,0,0,0-4.32-4.32H33.84" transform="translate(0 0)"/><path id="Path_256" data-name="Path 256" class="cls-1" d="M40.31,45.35H5.79a5,5,0,0,1-5-5h18v1.44h8.63V40.31h18A5,5,0,0,1,40.31,45.35Z" transform="translate(0 0)"/></g></g><g id="doctor"><path id="Path_257" data-name="Path 257" class="cls-1" d="M5.79,36.72v-5.5A7.19,7.19,0,0,1,9.92,24.7L18,20.89,18.73,18" transform="translate(0 0)"/><path id="Path_258" data-name="Path 258" class="cls-1" d="M40.31,36.72v-5.5a7.19,7.19,0,0,0-4.13-6.51l-8.1-3.81L27.37,18" transform="translate(0 0)"/><path id="Path_259" data-name="Path 259" class="cls-1" d="M25.81,18.7c3.9-1.67,4.33-5.2,4.75-8.66a9.48,9.48,0,0,0-.6-5.6,7,7,0,0,0-4-3.22,9.17,9.17,0,0,0-5.82,0,7,7,0,0,0-4,3.22,9.48,9.48,0,0,0-.6,5.6c.42,3.46.85,7,4.75,8.66" transform="translate(0 0)"/><path id="Path_260" data-name="Path 260" class="cls-1" d="M18,20.89c0,3.6,5,7.19,5,7.19s5-3.6,5-7.19" transform="translate(0 0)"/><g id="Group_682" data-name="Group 682"><path id="Path_261" data-name="Path 261" class="cls-2" d="M18,20.89c-4.32,2.16-3.6,7.19-3.6,7.19" transform="translate(0 0)"/><path id="Path_262" data-name="Path 262" class="cls-2" d="M28.09,20.89c3.6.72,3.6,7.19,3.6,7.19V31" transform="translate(0 0)"/><path id="Path_263" data-name="Path 263" class="cls-2" d="M12.26,36.72H10.1V33.84c0-3.17,1.94-5.76,4.32-5.76h0c2.37,0,4.32,2.59,4.32,5.76v2.88H16.57" transform="translate(0 0)"/><circle id="Ellipse_7" data-name="Ellipse 7" class="cls-2" cx="31.52" cy="33.35" r="2"/></g></g></g></svg>