<svg xmlns="http://www.w3.org/2000/svg" viewBox="0 0 46.6 46.6"><defs><style>.cls-1,.cls-2{fill:none;stroke-miterlimit:10;stroke-width:2px;}.cls-1{stroke:#fff;}.cls-2{stroke:#e40303;}</style></defs><title>doctor</title><g id="Layer_2" data-name="Layer 2"><g id="Layer_1-2" data-name="Layer 1"><g id="online_medical_consultation-diagnosis" data-name="online medical consultation-diagnosis"><g id="_Grupo_" data-name=" Grupo "><g id="Group_681" data-name="Group 681"><path id="Path_254" data-name="Path 254" class="cls-1" d="M2.44,37.69V16.83a4.32,4.32,0,0,1,4.32-4.32h5.76"/><path id="Path_255" data-name="Path 255" class="cls-1" d="M44.16,37.69V16.83a4.32,4.32,0,0,0-4.32-4.32H34.09"/><path id="Path_256" data-name="Path 256" class="cls-1" d="M40.56,45.6H6a5,5,0,0,1-5-5H19V42h8.63V40.56h18A5,5,0,0,1,40.56,45.6Z"/></g></g><g id="doctor"><path id="Path_257" data-name="Path 257" class="cls-1" d="M6,37v-5.5A7.19,7.19,0,0,1,10.17,25l8.1-3.81L19,18.27"/><path id="Path_258" data-name="Path 258" class="cls-1" d="M40.56,37v-5.5A7.19,7.19,0,0,0,36.43,25l-8.1-3.81-.72-2.88"/><path id="Path_259" data-name="Path 259" class="cls-1" d="M26.06,19c3.9-1.67,4.33-5.2,4.75-8.66a9.48,9.48,0,0,0-.6-5.6,7,7,0,0,0-4-3.22,9.17,9.17,0,0,0-5.82,0,7,7,0,0,0-4,3.22,9.48,9.48,0,0,0-.6,5.6c.42,3.46.85,7,4.75,8.66"/><path id="Path_260" data-name="Path 260" class="cls-1" d="M18.26,21.14c0,3.6,5,7.19,5,7.19s5-3.6,5-7.19"/><g id="Group_682" data-name="Group 682"><path id="Path_261" data-name="Path 261" class="cls-2" d="M18.26,21.14c-4.32,2.16-3.6,7.19-3.6,7.19"/><path id="Path_262" data-name="Path 262" class="cls-2" d="M28.34,21.14c3.6.72,3.6,7.19,3.6,7.19v2.88"/><path id="Path_263" data-name="Path 263" class="cls-2" d="M12.51,37H10.35V34.09c0-3.17,1.94-5.76,4.32-5.76h0C17,28.34,19,30.93,19,34.09V37H16.83"/><circle id="Ellipse_7" data-name="Ellipse 7" class="cls-2" cx="31.77" cy="33.6" r="2"/></g></g></g></g></g></svg>