<svg id="facebook" xmlns="http://www.w3.org/2000/svg" viewBox="0 0 11.14 20.63"><defs><style>.cls-1{fill:#151d41;}</style></defs><title>facebook-dark-blue</title><path id="Path_58" data-name="Path 58" class="cls-1" d="M10.73,0H8.06A4.7,4.7,0,0,0,3.11,5.07V7.41H.42A.42.42,0,0,0,0,7.84v3.39a.42.42,0,0,0,.42.42H3.11V20.2a.42.42,0,0,0,.42.42H7a.42.42,0,0,0,.42-.42h0V11.65H10.6a.42.42,0,0,0,.42-.42V7.84a.42.42,0,0,0-.42-.42H7.46v-2c0-1,.23-1.44,1.47-1.44h1.8a.42.42,0,0,0,.42-.42V.43A.42.42,0,0,0,10.73,0Z" transform="translate(0 0.01)"/></svg>