<svg id="Layer_1" data-name="Layer 1" xmlns="http://www.w3.org/2000/svg" viewBox="0 0 23 23"><defs><style>.cls-1{fill:#fff;}</style></defs><title>linkedin</title><path id="linkedin" class="cls-1" d="M21.34,0H1.66A1.66,1.66,0,0,0,0,1.66V21.34A1.66,1.66,0,0,0,1.66,23H21.34A1.66,1.66,0,0,0,23,21.34h0V1.66A1.66,1.66,0,0,0,21.34,0ZM8.16,17.39H5.36V9h2.8ZM6.76,7.81h0A1.46,1.46,0,0,1,6.52,4.9h.26A1.46,1.46,0,1,1,7,7.81H6.76Zm11.5,9.58h-2.8V12.88c0-1.13-.41-1.9-1.42-1.9a1.53,1.53,0,0,0-1.44,1,1.92,1.92,0,0,0-.09.68v4.71H9.71s0-7.64,0-8.43h2.8v1.19A2.78,2.78,0,0,1,15,8.77c1.84,0,3.22,1.2,3.22,3.79Z"/></svg>