<svg id="Layer_1" data-name="Layer 1" xmlns="http://www.w3.org/2000/svg" viewBox="0 0 24 17.45"><defs><style>.cls-1{fill:#222;}</style></defs><title>mail-black</title><g id="contact"><g id="Group_23" data-name="Group 23"><g id="Group_22" data-name="Group 22"><path id="Path_1" data-name="Path 1" class="cls-1" d="M23.45,0H.55A.54.54,0,0,0,0,.55H0V16.91a.55.55,0,0,0,.55.55H23.45a.55.55,0,0,0,.55-.55h0V.55A.55.55,0,0,0,23.45,0Zm-.55,15L16.15,8.29l-.77.77,7.3,7.3H1.32l7.3-7.3-.77-.77L1.09,15v-14H22.91Z"/></g></g><g id="Group_25" data-name="Group 25"><g id="Group_24" data-name="Group 24"><path id="Path_2" data-name="Path 2" class="cls-1" d="M21.89,1,12,10,2.11,1H1v.4L11.61,11a.59.59,0,0,0,.78,0L23,1.4V1Z"/></g></g></g></svg>