<svg id="Layer_1" data-name="Layer 1" xmlns="http://www.w3.org/2000/svg" viewBox="0 0 20 20"><defs><style>.cls-1{fill:#222;}</style></defs><title>phone-black</title><g id="phone"><g id="Group_860" data-name="Group 860"><path id="Path_6380" data-name="Path 6380" class="cls-1" d="M10.69,0A10,10,0,0,0,.17,11.86,10.3,10.3,0,0,0,9.45,20H10a10,10,0,0,0,7.08-2.93l.3-.3a.42.42,0,0,0,0-.59l-.59-.59a.42.42,0,0,0-.59,0l-.3.3A8.33,8.33,0,1,1,10.58,1.69a8.71,8.71,0,0,1,7.75,8.58v1.4a1.25,1.25,0,0,1-1.25,1.25H15.83v-.2a1,1,0,0,0-1-1h0a6.43,6.43,0,0,1-2-.32,1,1,0,0,0-1,.21l-1.24.94A7,7,0,0,1,7.48,9.44l.9-1.2a1,1,0,0,0,.25-1,6.42,6.42,0,0,1-.32-2,1,1,0,0,0-1-1H5.18a1,1,0,0,0-1,1A10.66,10.66,0,0,0,14.82,15.83h0a1,1,0,0,0,1-1v-.23h1.25A2.92,2.92,0,0,0,20,11.67v-1.4A10.16,10.16,0,0,0,10.69,0Z" transform="translate(0 0)"/></g></g></svg>