<svg xmlns="http://www.w3.org/2000/svg" viewBox="0 0 450.15 275.33"><defs><style>.cls-1{opacity:0.27;}.cls-2{fill:#00b0f0;}</style></defs><title>stars-blue</title><g id="Layer_2" data-name="Layer 2"><g id="Layer_1-2" data-name="Layer 1"><g id="Group_922" data-name="Group 922" class="cls-1"><path id="Path_788" data-name="Path 788" class="cls-2" d="M437,269.87h5.46v5.46h2.19v-5.46h5.46v-2.19h-5.46v-5.46H442.5v5.46H437Z"/><path id="Path_789" data-name="Path 789" class="cls-2" d="M415.18,248h5.46v5.46h2.19V248h5.46v-2.18h-5.46v-5.46h-2.19v5.46h-5.46Z"/><path id="Path_790" data-name="Path 790" class="cls-2" d="M371.48,248h5.46v5.46h2.19V248h5.46v-2.18h-5.46v-5.46h-2.19v5.46h-5.46Z"/><path id="Path_791" data-name="Path 791" class="cls-2" d="M327.78,248h5.46v5.46h2.19V248h5.46v-2.18h-5.46v-5.46h-2.19v5.46h-5.46Z"/><path id="Path_792" data-name="Path 792" class="cls-2" d="M284.08,248h5.46v5.46h2.19V248h5.46v-2.18h-5.46v-5.46h-2.19v5.46h-5.46Z"/><path id="Path_793" data-name="Path 793" class="cls-2" d="M240.37,248h5.46v5.46H248V248h5.46v-2.18H248v-5.46h-2.19v5.46h-5.46Z"/><path id="Path_794" data-name="Path 794" class="cls-2" d="M196.67,248h5.46v5.46h2.19V248h5.46v-2.18h-5.46v-5.46h-2.19v5.46h-5.46Z"/><path id="Path_795" data-name="Path 795" class="cls-2" d="M153,248h5.46v5.46h2.19V248h5.46v-2.18h-5.46v-5.46h-2.19v5.46H153Z"/><path id="Path_796" data-name="Path 796" class="cls-2" d="M109.26,248h5.46v5.46h2.19V248h5.46v-2.18h-5.46v-5.46h-2.19v5.46h-5.46Z"/><path id="Path_797" data-name="Path 797" class="cls-2" d="M65.56,248H71v5.46H73.2V248h5.46v-2.18H73.2v-5.46H71v5.46H65.56Z"/><path id="Path_798" data-name="Path 798" class="cls-2" d="M21.85,248h5.46v5.46H29.5V248H35v-2.18H29.5v-5.46H27.32v5.46H21.85Z"/><path id="Path_799" data-name="Path 799" class="cls-2" d="M393.33,269.87h5.46v5.46H401v-5.46h5.46v-2.19H401v-5.46H398.8v5.46h-5.46Z"/><path id="Path_800" data-name="Path 800" class="cls-2" d="M349.63,269.87h5.46v5.46h2.19v-5.46h5.46v-2.19h-5.46v-5.46h-2.19v5.46h-5.46Z"/><path id="Path_801" data-name="Path 801" class="cls-2" d="M305.93,269.87h5.46v5.46h2.19v-5.46H319v-2.19h-5.46v-5.46h-2.19v5.46h-5.46Z"/><path id="Path_802" data-name="Path 802" class="cls-2" d="M262.22,269.87h5.46v5.46h2.19v-5.46h5.46v-2.19h-5.46v-5.46h-2.19v5.46h-5.46Z"/><path id="Path_803" data-name="Path 803" class="cls-2" d="M218.52,269.87H224v5.46h2.19v-5.46h5.46v-2.19h-5.46v-5.46H224v5.46h-5.46Z"/><path id="Path_804" data-name="Path 804" class="cls-2" d="M174.82,269.87h5.46v5.46h2.19v-5.46h5.46v-2.19h-5.46v-5.46h-2.19v5.46h-5.46Z"/><path id="Path_805" data-name="Path 805" class="cls-2" d="M131.11,269.87h5.46v5.46h2.19v-5.46h5.46v-2.19h-5.46v-5.46h-2.19v5.46h-5.46Z"/><path id="Path_806" data-name="Path 806" class="cls-2" d="M87.41,269.87h5.46v5.46h2.19v-5.46h5.46v-2.19H95.06v-5.46H92.87v5.46H87.41Z"/><path id="Path_807" data-name="Path 807" class="cls-2" d="M43.7,269.87h5.46v5.46h2.19v-5.46h5.46v-2.19H51.35v-5.46H49.17v5.46H43.7Z"/><path id="Path_808" data-name="Path 808" class="cls-2" d="M0,269.87H5.46v5.46H7.65v-5.46h5.46v-2.19H7.65v-5.46H5.46v5.46H0Z"/><path id="Path_809" data-name="Path 809" class="cls-2" d="M437,226.17h5.46v5.46h2.19v-5.46h5.46V224h-5.46v-5.46H442.5V224H437Z"/><path id="Path_810" data-name="Path 810" class="cls-2" d="M415.18,204.32h5.46v5.46h2.19v-5.46h5.46v-2.18h-5.46v-5.46h-2.19v5.46h-5.46Z"/><path id="Path_811" data-name="Path 811" class="cls-2" d="M371.48,204.32h5.46v5.46h2.19v-5.46h5.46v-2.18h-5.46v-5.46h-2.19v5.46h-5.46Z"/><path id="Path_812" data-name="Path 812" class="cls-2" d="M327.78,204.32h5.46v5.46h2.19v-5.46h5.46v-2.18h-5.46v-5.46h-2.19v5.46h-5.46Z"/><path id="Path_813" data-name="Path 813" class="cls-2" d="M284.08,204.32h5.46v5.46h2.19v-5.46h5.46v-2.18h-5.46v-5.46h-2.19v5.46h-5.46Z"/><path id="Path_814" data-name="Path 814" class="cls-2" d="M240.37,204.32h5.46v5.46H248v-5.46h5.46v-2.18H248v-5.46h-2.19v5.46h-5.46Z"/><path id="Path_815" data-name="Path 815" class="cls-2" d="M196.67,204.32h5.46v5.46h2.19v-5.46h5.46v-2.18h-5.46v-5.46h-2.19v5.46h-5.46Z"/><path id="Path_816" data-name="Path 816" class="cls-2" d="M153,204.32h5.46v5.46h2.19v-5.46h5.46v-2.18h-5.46v-5.46h-2.19v5.46H153Z"/><path id="Path_817" data-name="Path 817" class="cls-2" d="M109.26,204.32h5.46v5.46h2.19v-5.46h5.46v-2.18h-5.46v-5.46h-2.19v5.46h-5.46Z"/><path id="Path_818" data-name="Path 818" class="cls-2" d="M65.56,204.32H71v5.46H73.2v-5.46h5.46v-2.18H73.2v-5.46H71v5.46H65.56Z"/><path id="Path_819" data-name="Path 819" class="cls-2" d="M21.85,204.32h5.46v5.46H29.5v-5.46H35v-2.18H29.5v-5.46H27.32v5.46H21.85Z"/><path id="Path_820" data-name="Path 820" class="cls-2" d="M393.33,226.17h5.46v5.46H401v-5.46h5.46V224H401v-5.46H398.8V224h-5.46Z"/><path id="Path_821" data-name="Path 821" class="cls-2" d="M349.63,226.17h5.46v5.46h2.19v-5.46h5.46V224h-5.46v-5.46h-2.19V224h-5.46Z"/><path id="Path_822" data-name="Path 822" class="cls-2" d="M305.93,226.17h5.46v5.46h2.19v-5.46H319V224h-5.46v-5.46h-2.19V224h-5.46Z"/><path id="Path_823" data-name="Path 823" class="cls-2" d="M262.22,226.17h5.46v5.46h2.19v-5.46h5.46V224h-5.46v-5.46h-2.19V224h-5.46Z"/><path id="Path_824" data-name="Path 824" class="cls-2" d="M218.52,226.17H224v5.46h2.19v-5.46h5.46V224h-5.46v-5.46H224V224h-5.46Z"/><path id="Path_825" data-name="Path 825" class="cls-2" d="M174.82,226.17h5.46v5.46h2.19v-5.46h5.46V224h-5.46v-5.46h-2.19V224h-5.46Z"/><path id="Path_826" data-name="Path 826" class="cls-2" d="M131.11,226.17h5.46v5.46h2.19v-5.46h5.46V224h-5.46v-5.46h-2.19V224h-5.46Z"/><path id="Path_827" data-name="Path 827" class="cls-2" d="M87.41,226.17h5.46v5.46h2.19v-5.46h5.46V224H95.06v-5.46H92.87V224H87.41Z"/><path id="Path_828" data-name="Path 828" class="cls-2" d="M43.7,226.17h5.46v5.46h2.19v-5.46h5.46V224H51.35v-5.46H49.17V224H43.7Z"/><path id="Path_829" data-name="Path 829" class="cls-2" d="M0,226.17H5.46v5.46H7.65v-5.46h5.46V224H7.65v-5.46H5.46V224H0Z"/><path id="Path_830" data-name="Path 830" class="cls-2" d="M437,182.46h5.46v5.46h2.19v-5.46h5.46v-2.18h-5.46v-5.46H442.5v5.46H437Z"/><path id="Path_831" data-name="Path 831" class="cls-2" d="M415.18,160.61h5.46v5.46h2.19v-5.46h5.46v-2.18h-5.46V153h-2.19v5.46h-5.46Z"/><path id="Path_832" data-name="Path 832" class="cls-2" d="M371.48,160.61h5.46v5.46h2.19v-5.46h5.46v-2.18h-5.46V153h-2.19v5.46h-5.46Z"/><path id="Path_833" data-name="Path 833" class="cls-2" d="M327.78,160.61h5.46v5.46h2.19v-5.46h5.46v-2.18h-5.46V153h-2.19v5.46h-5.46Z"/><path id="Path_834" data-name="Path 834" class="cls-2" d="M284.08,160.61h5.46v5.46h2.19v-5.46h5.46v-2.18h-5.46V153h-2.19v5.46h-5.46Z"/><path id="Path_835" data-name="Path 835" class="cls-2" d="M240.37,160.61h5.46v5.46H248v-5.46h5.46v-2.18H248V153h-2.19v5.46h-5.46Z"/><path id="Path_836" data-name="Path 836" class="cls-2" d="M196.67,160.61h5.46v5.46h2.19v-5.46h5.46v-2.18h-5.46V153h-2.19v5.46h-5.46Z"/><path id="Path_837" data-name="Path 837" class="cls-2" d="M153,160.61h5.46v5.46h2.19v-5.46h5.46v-2.18h-5.46V153h-2.19v5.46H153Z"/><path id="Path_838" data-name="Path 838" class="cls-2" d="M109.26,160.61h5.46v5.46h2.19v-5.46h5.46v-2.18h-5.46V153h-2.19v5.46h-5.46Z"/><path id="Path_839" data-name="Path 839" class="cls-2" d="M65.56,160.61H71v5.46H73.2v-5.46h5.46v-2.18H73.2V153H71v5.46H65.56Z"/><path id="Path_840" data-name="Path 840" class="cls-2" d="M21.85,160.61h5.46v5.46H29.5v-5.46H35v-2.18H29.5V153H27.32v5.46H21.85Z"/><path id="Path_841" data-name="Path 841" class="cls-2" d="M393.33,182.46h5.46v5.46H401v-5.46h5.46v-2.18H401v-5.46H398.8v5.46h-5.46Z"/><path id="Path_842" data-name="Path 842" class="cls-2" d="M349.63,182.46h5.46v5.46h2.19v-5.46h5.46v-2.18h-5.46v-5.46h-2.19v5.46h-5.46Z"/><path id="Path_843" data-name="Path 843" class="cls-2" d="M305.93,182.46h5.46v5.46h2.19v-5.46H319v-2.18h-5.46v-5.46h-2.19v5.46h-5.46Z"/><path id="Path_844" data-name="Path 844" class="cls-2" d="M262.22,182.46h5.46v5.46h2.19v-5.46h5.46v-2.18h-5.46v-5.46h-2.19v5.46h-5.46Z"/><path id="Path_845" data-name="Path 845" class="cls-2" d="M218.52,182.46H224v5.46h2.19v-5.46h5.46v-2.18h-5.46v-5.46H224v5.46h-5.46Z"/><path id="Path_846" data-name="Path 846" class="cls-2" d="M174.82,182.46h5.46v5.46h2.19v-5.46h5.46v-2.18h-5.46v-5.46h-2.19v5.46h-5.46Z"/><path id="Path_847" data-name="Path 847" class="cls-2" d="M131.11,182.46h5.46v5.46h2.19v-5.46h5.46v-2.18h-5.46v-5.46h-2.19v5.46h-5.46Z"/><path id="Path_848" data-name="Path 848" class="cls-2" d="M87.41,182.46h5.46v5.46h2.19v-5.46h5.46v-2.18H95.06v-5.46H92.87v5.46H87.41Z"/><path id="Path_849" data-name="Path 849" class="cls-2" d="M43.7,182.46h5.46v5.46h2.19v-5.46h5.46v-2.18H51.35v-5.46H49.17v5.46H43.7Z"/><path id="Path_850" data-name="Path 850" class="cls-2" d="M0,182.46H5.46v5.46H7.65v-5.46h5.46v-2.18H7.65v-5.46H5.46v5.46H0Z"/><path id="Path_851" data-name="Path 851" class="cls-2" d="M437,138.76h5.46v5.46h2.19v-5.46h5.46v-2.18h-5.46v-5.46H442.5v5.46H437Z"/><path id="Path_852" data-name="Path 852" class="cls-2" d="M415.18,116.91h5.46v5.46h2.19v-5.46h5.46v-2.18h-5.46v-5.46h-2.19v5.46h-5.46Z"/><path id="Path_853" data-name="Path 853" class="cls-2" d="M371.48,116.91h5.46v5.46h2.19v-5.46h5.46v-2.18h-5.46v-5.46h-2.19v5.46h-5.46Z"/><path id="Path_854" data-name="Path 854" class="cls-2" d="M327.78,116.91h5.46v5.46h2.19v-5.46h5.46v-2.18h-5.46v-5.46h-2.19v5.46h-5.46Z"/><path id="Path_855" data-name="Path 855" class="cls-2" d="M284.08,116.91h5.46v5.46h2.19v-5.46h5.46v-2.18h-5.46v-5.46h-2.19v5.46h-5.46Z"/><path id="Path_856" data-name="Path 856" class="cls-2" d="M240.37,116.91h5.46v5.46H248v-5.46h5.46v-2.18H248v-5.46h-2.19v5.46h-5.46Z"/><path id="Path_857" data-name="Path 857" class="cls-2" d="M196.67,116.91h5.46v5.46h2.19v-5.46h5.46v-2.18h-5.46v-5.46h-2.19v5.46h-5.46Z"/><path id="Path_858" data-name="Path 858" class="cls-2" d="M153,116.91h5.46v5.46h2.19v-5.46h5.46v-2.18h-5.46v-5.46h-2.19v5.46H153Z"/><path id="Path_859" data-name="Path 859" class="cls-2" d="M109.26,116.91h5.46v5.46h2.19v-5.46h5.46v-2.18h-5.46v-5.46h-2.19v5.46h-5.46Z"/><path id="Path_860" data-name="Path 860" class="cls-2" d="M65.56,116.91H71v5.46H73.2v-5.46h5.46v-2.18H73.2v-5.46H71v5.46H65.56Z"/><path id="Path_861" data-name="Path 861" class="cls-2" d="M21.85,116.91h5.46v5.46H29.5v-5.46H35v-2.18H29.5v-5.46H27.32v5.46H21.85Z"/><path id="Path_862" data-name="Path 862" class="cls-2" d="M393.33,138.76h5.46v5.46H401v-5.46h5.46v-2.18H401v-5.46H398.8v5.46h-5.46Z"/><path id="Path_863" data-name="Path 863" class="cls-2" d="M349.63,138.76h5.46v5.46h2.19v-5.46h5.46v-2.18h-5.46v-5.46h-2.19v5.46h-5.46Z"/><path id="Path_864" data-name="Path 864" class="cls-2" d="M305.93,138.76h5.46v5.46h2.19v-5.46H319v-2.18h-5.46v-5.46h-2.19v5.46h-5.46Z"/><path id="Path_865" data-name="Path 865" class="cls-2" d="M262.22,138.76h5.46v5.46h2.19v-5.46h5.46v-2.18h-5.46v-5.46h-2.19v5.46h-5.46Z"/><path id="Path_866" data-name="Path 866" class="cls-2" d="M218.52,138.76H224v5.46h2.19v-5.46h5.46v-2.18h-5.46v-5.46H224v5.46h-5.46Z"/><path id="Path_867" data-name="Path 867" class="cls-2" d="M174.82,138.76h5.46v5.46h2.19v-5.46h5.46v-2.18h-5.46v-5.46h-2.19v5.46h-5.46Z"/><path id="Path_868" data-name="Path 868" class="cls-2" d="M131.11,138.76h5.46v5.46h2.19v-5.46h5.46v-2.18h-5.46v-5.46h-2.19v5.46h-5.46Z"/><path id="Path_869" data-name="Path 869" class="cls-2" d="M87.41,138.76h5.46v5.46h2.19v-5.46h5.46v-2.18H95.06v-5.46H92.87v5.46H87.41Z"/><path id="Path_870" data-name="Path 870" class="cls-2" d="M43.7,138.76h5.46v5.46h2.19v-5.46h5.46v-2.18H51.35v-5.46H49.17v5.46H43.7Z"/><path id="Path_871" data-name="Path 871" class="cls-2" d="M0,138.76H5.46v5.46H7.65v-5.46h5.46v-2.18H7.65v-5.46H5.46v5.46H0Z"/><path id="Path_872" data-name="Path 872" class="cls-2" d="M437,95.06h5.46v5.46h2.19V95.06h5.46V92.87h-5.46V87.41H442.5v5.46H437Z"/><path id="Path_873" data-name="Path 873" class="cls-2" d="M415.18,73.2h5.46v5.46h2.19V73.2h5.46V71h-5.46V65.56h-2.19V71h-5.46Z"/><path id="Path_874" data-name="Path 874" class="cls-2" d="M371.48,73.2h5.46v5.46h2.19V73.2h5.46V71h-5.46V65.56h-2.19V71h-5.46Z"/><path id="Path_875" data-name="Path 875" class="cls-2" d="M327.78,73.2h5.46v5.46h2.19V73.2h5.46V71h-5.46V65.56h-2.19V71h-5.46Z"/><path id="Path_876" data-name="Path 876" class="cls-2" d="M284.08,73.2h5.46v5.46h2.19V73.2h5.46V71h-5.46V65.56h-2.19V71h-5.46Z"/><path id="Path_877" data-name="Path 877" class="cls-2" d="M240.37,73.2h5.46v5.46H248V73.2h5.46V71H248V65.56h-2.19V71h-5.46Z"/><path id="Path_878" data-name="Path 878" class="cls-2" d="M196.67,73.2h5.46v5.46h2.19V73.2h5.46V71h-5.46V65.56h-2.19V71h-5.46Z"/><path id="Path_879" data-name="Path 879" class="cls-2" d="M153,73.2h5.46v5.46h2.19V73.2h5.46V71h-5.46V65.56h-2.19V71H153Z"/><path id="Path_880" data-name="Path 880" class="cls-2" d="M109.26,73.2h5.46v5.46h2.19V73.2h5.46V71h-5.46V65.56h-2.19V71h-5.46Z"/><path id="Path_881" data-name="Path 881" class="cls-2" d="M65.56,73.2H71v5.46H73.2V73.2h5.46V71H73.2V65.56H71V71H65.56Z"/><path id="Path_882" data-name="Path 882" class="cls-2" d="M21.85,73.2h5.46v5.46H29.5V73.2H35V71H29.5V65.56H27.32V71H21.85Z"/><path id="Path_883" data-name="Path 883" class="cls-2" d="M393.33,95.06h5.46v5.46H401V95.06h5.46V92.87H401V87.41H398.8v5.46h-5.46Z"/><path id="Path_884" data-name="Path 884" class="cls-2" d="M349.63,95.06h5.46v5.46h2.19V95.06h5.46V92.87h-5.46V87.41h-2.19v5.46h-5.46Z"/><path id="Path_885" data-name="Path 885" class="cls-2" d="M305.93,95.06h5.46v5.46h2.19V95.06H319V92.87h-5.46V87.41h-2.19v5.46h-5.46Z"/><path id="Path_886" data-name="Path 886" class="cls-2" d="M262.22,95.06h5.46v5.46h2.19V95.06h5.46V92.87h-5.46V87.41h-2.19v5.46h-5.46Z"/><path id="Path_887" data-name="Path 887" class="cls-2" d="M218.52,95.06H224v5.46h2.19V95.06h5.46V92.87h-5.46V87.41H224v5.46h-5.46Z"/><path id="Path_888" data-name="Path 888" class="cls-2" d="M174.82,95.06h5.46v5.46h2.19V95.06h5.46V92.87h-5.46V87.41h-2.19v5.46h-5.46Z"/><path id="Path_889" data-name="Path 889" class="cls-2" d="M131.11,95.06h5.46v5.46h2.19V95.06h5.46V92.87h-5.46V87.41h-2.19v5.46h-5.46Z"/><path id="Path_890" data-name="Path 890" class="cls-2" d="M87.41,95.06h5.46v5.46h2.19V95.06h5.46V92.87H95.06V87.41H92.87v5.46H87.41Z"/><path id="Path_891" data-name="Path 891" class="cls-2" d="M43.7,95.06h5.46v5.46h2.19V95.06h5.46V92.87H51.35V87.41H49.17v5.46H43.7Z"/><path id="Path_892" data-name="Path 892" class="cls-2" d="M0,95.06H5.46v5.46H7.65V95.06h5.46V92.87H7.65V87.41H5.46v5.46H0Z"/><path id="Path_893" data-name="Path 893" class="cls-2" d="M437,51.35h5.46v5.46h2.19V51.35h5.46V49.17h-5.46V43.7H442.5v5.46H437Z"/><path id="Path_894" data-name="Path 894" class="cls-2" d="M415.18,29.5h5.46V35h2.19V29.5h5.46V27.32h-5.46V21.85h-2.19v5.46h-5.46Z"/><path id="Path_895" data-name="Path 895" class="cls-2" d="M371.48,29.5h5.46V35h2.19V29.5h5.46V27.32h-5.46V21.85h-2.19v5.46h-5.46Z"/><path id="Path_896" data-name="Path 896" class="cls-2" d="M327.78,29.5h5.46V35h2.19V29.5h5.46V27.32h-5.46V21.85h-2.19v5.46h-5.46Z"/><path id="Path_897" data-name="Path 897" class="cls-2" d="M284.08,29.5h5.46V35h2.19V29.5h5.46V27.32h-5.46V21.85h-2.19v5.46h-5.46Z"/><path id="Path_898" data-name="Path 898" class="cls-2" d="M240.37,29.5h5.46V35H248V29.5h5.46V27.32H248V21.85h-2.19v5.46h-5.46Z"/><path id="Path_899" data-name="Path 899" class="cls-2" d="M196.67,29.5h5.46V35h2.19V29.5h5.46V27.32h-5.46V21.85h-2.19v5.46h-5.46Z"/><path id="Path_900" data-name="Path 900" class="cls-2" d="M153,29.5h5.46V35h2.19V29.5h5.46V27.32h-5.46V21.85h-2.19v5.46H153Z"/><path id="Path_901" data-name="Path 901" class="cls-2" d="M109.26,29.5h5.46V35h2.19V29.5h5.46V27.32h-5.46V21.85h-2.19v5.46h-5.46Z"/><path id="Path_902" data-name="Path 902" class="cls-2" d="M65.56,29.5H71V35H73.2V29.5h5.46V27.32H73.2V21.85H71v5.46H65.56Z"/><path id="Path_903" data-name="Path 903" class="cls-2" d="M21.85,29.5h5.46V35H29.5V29.5H35V27.32H29.5V21.85H27.32v5.46H21.85Z"/><path id="Path_904" data-name="Path 904" class="cls-2" d="M393.33,51.35h5.46v5.46H401V51.35h5.46V49.17H401V43.7H398.8v5.46h-5.46Z"/><path id="Path_905" data-name="Path 905" class="cls-2" d="M349.63,51.35h5.46v5.46h2.19V51.35h5.46V49.17h-5.46V43.7h-2.19v5.46h-5.46Z"/><path id="Path_906" data-name="Path 906" class="cls-2" d="M305.93,51.35h5.46v5.46h2.19V51.35H319V49.17h-5.46V43.7h-2.19v5.46h-5.46Z"/><path id="Path_907" data-name="Path 907" class="cls-2" d="M262.22,51.35h5.46v5.46h2.19V51.35h5.46V49.17h-5.46V43.7h-2.19v5.46h-5.46Z"/><path id="Path_908" data-name="Path 908" class="cls-2" d="M218.52,51.35H224v5.46h2.19V51.35h5.46V49.17h-5.46V43.7H224v5.46h-5.46Z"/><path id="Path_909" data-name="Path 909" class="cls-2" d="M174.82,51.35h5.46v5.46h2.19V51.35h5.46V49.17h-5.46V43.7h-2.19v5.46h-5.46Z"/><path id="Path_910" data-name="Path 910" class="cls-2" d="M131.11,51.35h5.46v5.46h2.19V51.35h5.46V49.17h-5.46V43.7h-2.19v5.46h-5.46Z"/><path id="Path_911" data-name="Path 911" class="cls-2" d="M87.41,51.35h5.46v5.46h2.19V51.35h5.46V49.17H95.06V43.7H92.87v5.46H87.41Z"/><path id="Path_912" data-name="Path 912" class="cls-2" d="M43.7,51.35h5.46v5.46h2.19V51.35h5.46V49.17H51.35V43.7H49.17v5.46H43.7Z"/><path id="Path_913" data-name="Path 913" class="cls-2" d="M0,51.35H5.46v5.46H7.65V51.35h5.46V49.17H7.65V43.7H5.46v5.46H0Z"/><path id="Path_914" data-name="Path 914" class="cls-2" d="M437,7.65h5.46v5.46h2.19V7.65h5.46V5.46h-5.46V0H442.5V5.46H437Z"/><path id="Path_915" data-name="Path 915" class="cls-2" d="M393.33,7.65h5.46v5.46H401V7.65h5.46V5.46H401V0H398.8V5.46h-5.46Z"/><path id="Path_916" data-name="Path 916" class="cls-2" d="M349.63,7.65h5.46v5.46h2.19V7.65h5.46V5.46h-5.46V0h-2.19V5.46h-5.46Z"/><path id="Path_917" data-name="Path 917" class="cls-2" d="M305.93,7.65h5.46v5.46h2.19V7.65H319V5.46h-5.46V0h-2.19V5.46h-5.46Z"/><path id="Path_918" data-name="Path 918" class="cls-2" d="M262.22,7.65h5.46v5.46h2.19V7.65h5.46V5.46h-5.46V0h-2.19V5.46h-5.46Z"/><path id="Path_919" data-name="Path 919" class="cls-2" d="M218.52,7.65H224v5.46h2.19V7.65h5.46V5.46h-5.46V0H224V5.46h-5.46Z"/><path id="Path_920" data-name="Path 920" class="cls-2" d="M174.82,7.65h5.46v5.46h2.19V7.65h5.46V5.46h-5.46V0h-2.19V5.46h-5.46Z"/><path id="Path_921" data-name="Path 921" class="cls-2" d="M131.11,7.65h5.46v5.46h2.19V7.65h5.46V5.46h-5.46V0h-2.19V5.46h-5.46Z"/><path id="Path_922" data-name="Path 922" class="cls-2" d="M87.41,7.65h5.46v5.46h2.19V7.65h5.46V5.46H95.06V0H92.87V5.46H87.41Z"/><path id="Path_923" data-name="Path 923" class="cls-2" d="M43.7,7.65h5.46v5.46h2.19V7.65h5.46V5.46H51.35V0H49.17V5.46H43.7Z"/><path id="Path_924" data-name="Path 924" class="cls-2" d="M0,7.65H5.46v5.46H7.65V7.65h5.46V5.46H7.65V0H5.46V5.46H0Z"/></g></g></g></svg>